<svg version="1.1" id="Layer_1" xmlns="http://www.w3.org/2000/svg" xmlns:xlink="http://www.w3.org/1999/xlink" x="0px" y="0px"
	 width="100%" viewBox="0 0 286 286" enable-background="new 0 0 286 286" xml:space="preserve">
<path fill="#330099" opacity="1.000000" stroke="none" 
	d="
M1.000001,207.000000 
	C1.000000,165.312439 1.000000,123.624878 1.389092,81.531502 
	C2.191649,80.302490 2.770347,79.521660 2.993869,78.649773 
	C6.514942,64.915085 11.549358,51.907967 21.150146,41.175507 
	C25.204136,46.410374 29.141546,51.320713 32.783859,56.440968 
	C39.297916,65.598236 45.634117,74.882027 51.889175,84.404282 
	C48.803093,87.854752 45.637939,90.829704 42.985878,94.207504 
	C35.025681,104.345985 33.466312,116.578506 33.158562,128.779480 
	C32.811516,142.538177 32.998413,156.386566 34.198399,170.086868 
	C35.427055,184.114563 41.924938,195.746918 53.575176,204.348724 
	C63.769569,211.875656 75.266273,213.322189 87.393036,213.040573 
	C97.332253,212.809769 105.310623,209.060867 111.027046,200.847748 
	C112.137604,199.252151 112.955612,197.452942 113.908562,195.747665 
	C114.717056,196.038040 115.525558,196.328415 116.334053,196.618805 
	C117.125961,203.739365 116.697571,212.081970 127.026367,210.814911 
	C133.035400,210.077774 135.816605,207.052170 137.466034,201.141541 
	C139.668015,203.100952 141.880920,204.690384 143.426178,206.774780 
	C160.789841,230.196487 178.108139,253.652603 195.265381,277.225586 
	C197.362091,280.106323 198.446472,283.723907 200.000000,287.000000 
	C160.645767,287.000000 121.291542,287.000000 81.531593,286.610901 
	C79.026230,285.477051 76.959984,284.615143 74.821823,284.005432 
	C51.683304,277.407257 32.930496,264.692749 18.891335,244.934982 
	C11.214001,234.130463 6.360706,222.242874 2.984705,209.585358 
	C2.726180,208.616074 1.680045,207.856857 1.000001,207.000000 
z"/>
<path fill="#000000" opacity="1.000000" stroke="none" 
	d="
M287.000000,206.000000 
	C287.000000,232.926437 287.000000,259.852875 287.000000,287.000000 
	C260.646179,287.000000 234.291748,287.000000 207.244690,286.724182 
	C206.715805,286.004028 206.879517,285.559662 207.399902,285.074432 
	C208.850769,284.728699 209.944946,284.423828 211.412506,284.076660 
	C213.189529,283.634094 214.593201,283.233826 216.344604,282.868469 
	C218.144531,282.304718 219.596695,281.706116 221.402161,281.065033 
	C223.203537,280.366669 224.651627,279.710754 226.447235,279.030701 
	C228.214294,278.372986 229.633865,277.739410 231.394897,277.039185 
	C233.518768,275.996033 235.301163,275.019623 237.363358,273.917542 
	C238.894440,272.818390 240.145706,271.844879 241.752182,270.856995 
	C243.070221,270.172821 244.033081,269.503052 245.312912,268.763062 
	C247.122604,267.477478 248.615326,266.262146 250.381058,264.907715 
	C251.469498,263.864044 252.284897,262.959503 253.378571,261.911194 
	C254.790054,260.883728 255.923279,259.999969 257.330902,258.976440 
	C258.419647,257.926056 259.233978,257.015442 260.310303,255.925430 
	C261.395081,254.536880 262.217834,253.327713 263.333862,251.957321 
	C265.118866,249.882477 266.610596,247.968857 268.369507,245.866791 
	C269.439117,244.155731 270.241547,242.633133 271.343262,240.939545 
	C273.131256,238.194275 274.619965,235.620010 276.374023,232.859100 
	C277.109833,231.482971 277.580322,230.293472 278.326904,228.894730 
	C279.346375,226.787811 280.089752,224.890137 280.915009,222.632019 
	C281.367676,220.862839 281.738495,219.454132 282.393005,217.810242 
	C283.157654,215.396240 283.638550,213.217407 284.404266,210.791992 
	C284.830841,209.044876 284.972626,207.544342 285.447876,205.922409 
	C286.187592,205.867340 286.593781,205.933670 287.000000,206.000000 
z"/>
<path fill="#000000" opacity="1.000000" stroke="none" 
	d="
M20.900599,40.945564 
	C11.549358,51.907967 6.514942,64.915085 2.993869,78.649773 
	C2.770347,79.521660 2.191649,80.302490 1.389092,81.062843 
	C1.000000,54.406445 1.000000,27.812887 1.000000,1.000000 
	C27.353823,1.000000 53.708252,1.000000 80.728523,1.285940 
	C81.249146,2.010384 81.103935,2.448888 80.602448,2.927319 
	C79.151466,3.271438 78.056763,3.575629 76.576263,3.922700 
	C74.461288,4.366512 72.732094,4.767445 70.652946,5.249521 
	C68.257851,6.053764 66.212715,6.776865 63.937508,7.640422 
	C63.125763,8.147194 62.544086,8.513511 61.592819,8.927863 
	C59.201412,9.826967 57.179596,10.678034 54.925888,11.663101 
	C54.116352,12.159266 53.538715,12.521430 52.627377,12.948558 
	C50.829895,13.990248 49.366116,14.966975 47.606117,16.090750 
	C45.523308,17.456661 43.736721,18.675526 41.657036,20.042614 
	C39.892826,21.426533 38.421707,22.662231 36.658020,24.055161 
	C34.559559,25.774584 32.753662,27.336779 30.654568,29.057629 
	C28.874344,31.125395 27.387321,33.034504 25.609013,35.099121 
	C23.845352,37.151604 22.372976,39.048584 20.900599,40.945564 
z"/>
<path fill="#000000" opacity="1.000000" stroke="none" 
	d="
M207.000000,1.000000 
	C233.593552,1.000000 260.187103,1.000000 287.000000,1.000000 
	C287.000000,27.353823 287.000000,53.708252 286.613708,80.641373 
	C284.523529,76.466370 282.819672,71.712692 281.050720,66.585068 
	C278.242096,60.286896 276.003418,54.057888 272.649261,48.502331 
	C265.808136,37.171261 257.319550,27.182112 245.855377,19.599520 
	C240.792465,16.504761 235.916168,13.694706 230.837280,10.591276 
	C226.434189,8.824776 222.233704,7.351650 217.808853,5.584964 
	C215.403137,4.822210 213.221771,4.353018 210.815506,3.592027 
	C209.393738,2.533486 208.196869,1.766742 207.000000,1.000000 
z"/>
<path fill="#000000" opacity="1.000000" stroke="none" 
	d="
M1.000001,207.468658 
	C1.680045,207.856857 2.726180,208.616074 2.984705,209.585358 
	C6.360706,222.242874 11.214001,234.130463 18.891335,244.934982 
	C32.930496,264.692749 51.683304,277.407257 74.821823,284.005432 
	C76.959984,284.615143 79.026230,285.477051 81.062935,286.610901 
	C54.406445,287.000000 27.812891,287.000000 1.000000,287.000000 
	C1.000000,260.646179 1.000000,234.291748 1.000001,207.468658 
z"/>
<path fill="#940052" opacity="1.000000" stroke="none" 
	d="
M287.000000,136.000000 
	C287.000000,139.692902 287.000000,143.385818 286.692902,147.399017 
	C284.968384,146.374451 283.317047,145.202820 282.171783,143.656433 
	C275.094238,134.100052 268.218994,124.392807 261.070831,114.890442 
	C259.135193,112.317337 256.488464,110.279152 253.996002,107.672020 
	C250.773132,97.989258 244.529190,91.052170 236.841156,84.788872 
	C235.912369,83.012497 235.247894,81.460625 234.273819,80.136482 
	C217.625793,57.505543 200.909164,34.925003 184.292633,12.271034 
	C181.650528,8.668959 179.420532,4.764601 177.000000,0.999998 
	C180.030594,1.000000 183.061188,1.000000 186.625198,1.350177 
	C188.534256,4.147042 189.677795,6.763447 191.322830,9.013159 
	C202.922394,24.876356 214.647720,40.647491 226.289566,56.479877 
	C244.543823,81.304817 262.728668,106.180946 281.063751,130.945938 
	C282.570007,132.980438 284.999481,134.331421 287.000000,136.000000 
z"/>
<path fill="#A60045" opacity="1.000000" stroke="none" 
	d="
M218.033203,5.878525 
	C222.233704,7.351650 226.434189,8.824776 230.937683,10.939912 
	C232.250763,13.673962 232.963806,15.984322 234.316376,17.824648 
	C249.804993,38.898483 265.342316,59.937260 281.035522,80.858711 
	C282.414001,82.696442 284.983643,83.640724 287.000000,85.000000 
	C287.000000,89.689255 287.000000,94.378510 286.693451,99.393723 
	C284.251221,97.451714 281.859680,95.373032 280.019806,92.886177 
	C263.541412,70.613144 247.064117,48.337803 230.811127,25.900404 
	C226.174637,19.499664 222.272232,12.567175 218.033203,5.878525 
z"/>
<path fill="#630076" opacity="1.000000" stroke="none" 
	d="
M80.958725,2.887393 
	C81.103935,2.448888 81.249146,2.010384 81.197182,1.285940 
	C83.041710,1.000000 85.083412,1.000000 87.644791,1.346327 
	C89.179916,3.578331 89.990448,5.613651 91.241722,7.327117 
	C108.563004,31.046513 125.915604,54.743286 143.365936,78.367744 
	C144.797058,80.305214 146.994095,81.676926 148.825378,83.729446 
	C147.296936,89.732994 148.692337,92.966537 154.116577,96.489197 
	C158.097794,101.872993 161.965088,106.935097 165.889130,112.423172 
	C165.908112,114.565300 165.870346,116.281456 165.537766,117.852264 
	C163.937073,116.458214 162.413239,115.370110 161.357376,113.937172 
	C138.862976,83.409569 116.376816,52.875645 94.005638,22.257755 
	C89.416283,15.976606 85.295494,9.353095 80.958725,2.887393 
z"/>
<path fill="#380096" opacity="1.000000" stroke="none" 
	d="
M207.043243,285.115326 
	C206.879517,285.559662 206.715805,286.004028 206.776031,286.724182 
	C204.958328,287.000000 202.916672,287.000000 200.437500,287.000000 
	C198.446472,283.723907 197.362091,280.106323 195.265381,277.225586 
	C178.108139,253.652603 160.789841,230.196487 143.426178,206.774780 
	C141.880920,204.690384 139.668015,203.100952 137.407227,200.677078 
	C137.089355,194.716125 137.129456,189.359756 137.468231,184.144775 
	C139.288666,185.768784 140.791687,187.271225 142.336609,188.729279 
	C144.582382,190.848755 146.858368,192.936234 149.070709,195.435150 
	C147.268280,202.602829 148.412933,205.808151 154.158142,210.213715 
	C156.279816,213.803635 158.065735,217.219681 160.318222,220.293839 
	C170.164978,233.732346 180.249405,246.997314 190.041595,260.474945 
	C195.905365,268.545624 201.388840,276.892548 207.043243,285.115326 
z"/>
<path fill="#9E004B" opacity="1.000000" stroke="none" 
	d="
M287.000000,115.000000 
	C287.000000,116.388893 287.000000,117.777794 286.689270,119.447090 
	C285.096222,118.696640 283.578888,117.855751 282.567993,116.605431 
	C272.950073,104.709717 263.193115,92.916313 253.911392,80.761139 
	C237.968399,59.882462 222.254196,38.827084 206.633774,17.705500 
	C202.718399,12.411208 199.525146,6.582882 196.000000,0.999997 
	C198.042313,1.000000 200.084641,1.000000 202.649628,1.345387 
	C204.094620,3.446454 204.827682,5.337845 205.972397,6.934034 
	C210.628098,13.425880 215.420517,19.819508 220.143570,26.263241 
	C240.612030,54.188622 261.050140,82.136330 281.589233,110.009636 
	C283.018341,111.949043 285.179352,113.349129 287.000000,115.000000 
z"/>
<path fill="#98004F" opacity="1.000000" stroke="none" 
	d="
M287.000000,135.562500 
	C284.999481,134.331421 282.570007,132.980438 281.063751,130.945938 
	C262.728668,106.180946 244.543823,81.304817 226.289566,56.479877 
	C214.647720,40.647491 202.922394,24.876356 191.322830,9.013159 
	C189.677795,6.763447 188.534256,4.147042 187.079315,1.350177 
	C188.388885,1.000000 189.777786,1.000000 191.693695,1.333352 
	C193.195129,3.396798 194.017014,5.236726 195.170181,6.838087 
	C200.320267,13.989800 205.565308,21.073145 210.775345,28.181702 
	C234.074600,59.971146 257.343811,91.782753 280.737854,123.502289 
	C282.348663,125.686356 284.890900,127.183441 287.000000,129.000000 
	C287.000000,131.041672 287.000000,133.083328 287.000000,135.562500 
z"/>
<path fill="#9F004A" opacity="1.000000" stroke="none" 
	d="
M287.000000,114.555832 
	C285.179352,113.349129 283.018341,111.949043 281.589233,110.009636 
	C261.050140,82.136330 240.612030,54.188622 220.143570,26.263241 
	C215.420517,19.819508 210.628098,13.425880 205.972397,6.934034 
	C204.827682,5.337845 204.094620,3.446454 203.086151,1.345387 
	C204.066666,1.000000 205.133347,1.000000 206.600006,1.000000 
	C208.196869,1.766742 209.393738,2.533486 210.918167,3.935417 
	C212.245987,6.476991 213.022873,8.546711 214.279694,10.265506 
	C236.766357,41.018230 259.291199,71.743126 281.893890,102.410622 
	C283.223602,104.214813 285.281158,105.482597 287.000000,107.000000 
	C287.000000,109.370560 287.000000,111.741112 287.000000,114.555832 
z"/>
<path fill="#810060" opacity="1.000000" stroke="none" 
	d="
M141.000000,1.000000 
	C143.370560,1.000000 145.741104,1.000000 148.683685,1.321786 
	C150.374313,3.479181 151.364410,5.409099 152.631332,7.135892 
	C166.169891,25.588644 179.832031,43.951408 193.265442,62.480106 
	C196.542358,66.999992 199.108307,72.035347 201.559967,76.892059 
	C198.746490,76.911682 196.374222,76.872925 193.916321,76.498749 
	C193.075912,74.697662 192.499207,73.102089 191.539322,71.785995 
	C179.028366,54.632114 166.388733,37.571598 153.950577,20.365351 
	C149.404190,14.076153 145.303833,7.464532 141.000000,1.000000 
z"/>
<path fill="#72006B" opacity="1.000000" stroke="none" 
	d="
M113.000000,1.000000 
	C115.042320,1.000000 117.084633,1.000000 119.691238,1.321829 
	C121.274139,3.345405 122.165276,5.140393 123.331093,6.734493 
	C135.173019,22.926802 147.109940,39.049835 158.910706,55.271950 
	C164.070023,62.364292 168.976501,69.640556 173.556778,76.890640 
	C170.743988,76.909447 168.372223,76.870903 165.886398,76.511246 
	C165.053833,74.887878 164.470001,73.486702 163.596832,72.298073 
	C148.065826,51.156273 132.461349,30.068266 116.995140,8.879305 
	C115.281525,6.531626 114.313705,3.639580 113.000000,1.000000 
z"/>
<path fill="#9A004E" opacity="1.000000" stroke="none" 
	d="
M287.000000,128.550018 
	C284.890900,127.183441 282.348663,125.686356 280.737854,123.502289 
	C257.343811,91.782753 234.074600,59.971146 210.775345,28.181702 
	C205.565308,21.073145 200.320267,13.989800 195.170181,6.838087 
	C194.017014,5.236726 193.195129,3.396798 192.110367,1.333352 
	C193.066666,1.000000 194.133347,1.000000 195.600006,0.999997 
	C199.525146,6.582882 202.718399,12.411208 206.633774,17.705500 
	C222.254196,38.827084 237.968399,59.882462 253.911392,80.761139 
	C263.193115,92.916313 272.950073,104.709717 282.567993,116.605431 
	C283.578888,117.855751 285.096222,118.696640 286.689270,119.863747 
	C287.000000,122.700012 287.000000,125.400024 287.000000,128.550018 
z"/>
<path fill="#AC0041" opacity="1.000000" stroke="none" 
	d="
M287.000000,84.600006 
	C284.983643,83.640724 282.414001,82.696442 281.035522,80.858711 
	C265.342316,59.937260 249.804993,38.898483 234.316376,17.824648 
	C232.963806,15.984322 232.250763,13.673962 231.140259,11.233288 
	C235.916168,13.694706 240.792465,16.504761 245.917343,19.965162 
	C246.779602,22.136948 247.111893,23.864147 248.050598,25.147938 
	C257.233887,37.707165 266.463104,50.234104 275.836395,62.651623 
	C277.165558,64.412476 279.335205,65.538918 281.115814,66.959000 
	C282.819672,71.712692 284.523529,76.466370 286.613708,81.110031 
	C287.000000,82.066673 287.000000,83.133339 287.000000,84.600006 
z"/>
<path fill="#A30047" opacity="1.000000" stroke="none" 
	d="
M287.000000,106.562500 
	C285.281158,105.482597 283.223602,104.214813 281.893890,102.410622 
	C259.291199,71.743126 236.766357,41.018230 214.279694,10.265506 
	C213.022873,8.546711 212.245987,6.476991 211.143066,4.227215 
	C213.221771,4.353018 215.403137,4.822210 217.808853,5.584963 
	C222.272232,12.567175 226.174637,19.499664 230.811127,25.900404 
	C247.064117,48.337803 263.541412,70.613144 280.019806,92.886177 
	C281.859680,95.373032 284.251221,97.451714 286.693451,99.859848 
	C287.000000,102.041664 287.000000,104.083336 287.000000,106.562500 
z"/>
<path fill="#7D0063" opacity="1.000000" stroke="none" 
	d="
M140.562500,1.000000 
	C145.303833,7.464532 149.404190,14.076153 153.950577,20.365351 
	C166.388733,37.571598 179.028366,54.632114 191.539322,71.785995 
	C192.499207,73.102089 193.075912,74.697662 193.481583,76.557022 
	C191.088806,76.911522 189.045151,76.872337 186.887543,76.509750 
	C185.919952,74.580704 185.245880,72.844063 184.184799,71.389793 
	C174.216812,57.728207 164.061264,44.201916 154.208939,30.458031 
	C147.272659,20.782026 140.722549,10.829213 134.000000,1.000001 
	C136.041672,1.000000 138.083328,1.000000 140.562500,1.000000 
z"/>
<path fill="#8D0058" opacity="1.000000" stroke="none" 
	d="
M165.000000,0.999999 
	C166.388992,1.000000 167.778000,1.000000 169.665710,1.345899 
	C170.804138,3.031782 171.254791,4.508917 172.112259,5.690926 
	C182.838348,20.476669 193.717499,35.152184 204.360092,49.997410 
	C211.405594,59.825077 218.133591,69.880371 224.629883,79.869255 
	C222.171768,79.213730 220.087494,78.522713 217.931610,77.483871 
	C216.819702,75.084961 216.041290,72.841660 214.698746,71.012383 
	C200.760773,52.021442 186.657852,33.151154 172.787308,14.111443 
	C169.807327,10.020867 167.576141,5.384787 165.000000,0.999999 
z"/>
<path fill="#8B0059" opacity="1.000000" stroke="none" 
	d="
M287.000000,160.000000 
	C287.000000,164.356903 287.000000,168.713806 286.688965,173.398300 
	C284.838959,172.280991 283.037079,171.029922 281.804840,169.358826 
	C275.238953,160.454422 268.883972,151.394135 262.285645,142.514374 
	C260.958099,140.727844 258.894135,139.488586 257.111877,137.535645 
	C257.091431,132.715210 257.128845,128.356155 257.451202,124.154861 
	C258.915588,125.449059 260.282135,126.446754 261.244263,127.744316 
	C267.730927,136.492462 274.039429,145.374359 280.623077,154.047867 
	C282.355591,156.330322 284.853546,158.031754 287.000000,160.000000 
z"/>
<path fill="#8B0059" opacity="1.000000" stroke="none" 
	d="
M164.571533,0.999999 
	C167.576141,5.384787 169.807327,10.020867 172.787308,14.111443 
	C186.657852,33.151154 200.760773,52.021442 214.698746,71.012383 
	C216.041290,72.841660 216.819702,75.084961 217.517548,77.542480 
	C215.784500,77.909836 214.393936,77.870758 212.920929,77.492828 
	C211.926590,75.392715 211.226913,73.476410 210.070694,71.893616 
	C194.156174,50.107281 178.165482,28.376616 162.242279,6.596612 
	C160.977005,4.865966 160.072281,2.871735 159.000000,1.000000 
	C160.714355,1.000000 162.428711,1.000000 164.571533,0.999999 
z"/>
<path fill="#910055" opacity="1.000000" stroke="none" 
	d="
M287.000000,159.539368 
	C284.853546,158.031754 282.355591,156.330322 280.623077,154.047867 
	C274.039429,145.374359 267.730927,136.492462 261.244263,127.744316 
	C260.282135,126.446754 258.915588,125.449059 257.393005,123.731766 
	C256.089264,118.099083 255.128693,113.047264 254.168106,107.995453 
	C256.488464,110.279152 259.135193,112.317337 261.070831,114.890442 
	C268.218994,124.392807 275.094238,134.100052 282.171783,143.656433 
	C283.317047,145.202820 284.968384,146.374451 286.692902,147.859650 
	C287.000000,151.692902 287.000000,155.385818 287.000000,159.539368 
z"/>
<path fill="#85005D" opacity="1.000000" stroke="none" 
	d="
M202.001160,76.833679 
	C199.108307,72.035347 196.542358,66.999992 193.265442,62.480106 
	C179.832031,43.951408 166.169891,25.588644 152.631332,7.135892 
	C151.364410,5.409099 150.374313,3.479181 149.127838,1.321786 
	C150.388885,1.000000 151.777786,1.000000 153.711395,1.321584 
	C154.982666,2.942933 155.579239,4.338418 156.455307,5.528104 
	C169.333191,23.016184 182.309387,40.432240 195.121490,57.968227 
	C199.611053,64.113136 203.718994,70.536865 207.575531,76.891701 
	C205.433609,76.911308 203.717392,76.872490 202.001160,76.833679 
z"/>
<path fill="#88005B" opacity="1.000000" stroke="none" 
	d="
M208.001221,76.833267 
	C203.718994,70.536865 199.611053,64.113136 195.121490,57.968227 
	C182.309387,40.432240 169.333191,23.016184 156.455307,5.528104 
	C155.579239,4.338418 154.982666,2.942933 154.128052,1.321584 
	C155.388885,1.000000 156.777786,1.000000 158.583344,1.000000 
	C160.072281,2.871735 160.977005,4.865966 162.242279,6.596612 
	C178.165482,28.376616 194.156174,50.107281 210.070694,71.893616 
	C211.226913,73.476410 211.926590,75.392715 212.561859,77.410690 
	C210.857208,77.389374 209.429214,77.111320 208.001221,76.833267 
z"/>
<path fill="#760068" opacity="1.000000" stroke="none" 
	d="
M173.997803,76.833298 
	C168.976501,69.640556 164.070023,62.364292 158.910706,55.271950 
	C147.109940,39.049835 135.173019,22.926802 123.331093,6.734493 
	C122.165276,5.140393 121.274139,3.345405 120.127762,1.321829 
	C121.388893,1.000000 122.777779,1.000000 124.693733,1.333339 
	C126.288986,3.525971 127.194023,5.504371 128.450821,7.225979 
	C139.983658,23.024096 151.677704,38.705521 163.108612,54.576626 
	C168.322327,61.815563 173.051727,69.403313 177.602875,76.889664 
	C176.135895,76.908745 175.066849,76.871017 173.997803,76.833298 
z"/>
<path fill="#8F0056" opacity="1.000000" stroke="none" 
	d="
M225.003723,79.833763 
	C218.133591,69.880371 211.405594,59.825077 204.360092,49.997410 
	C193.717499,35.152184 182.838348,20.476669 172.112259,5.690926 
	C171.254791,4.508917 170.804138,3.031782 170.082214,1.345899 
	C171.066666,1.000000 172.133347,1.000000 173.710342,1.333366 
	C175.291290,3.529556 176.195740,5.514117 177.457733,7.236757 
	C193.847214,29.608963 210.316864,51.922508 226.671814,74.319839 
	C228.407394,76.696632 229.545776,79.509529 230.605774,82.055923 
	C228.501450,81.272415 226.752594,80.553093 225.003723,79.833763 
z"/>
<path fill="#780066" opacity="1.000000" stroke="none" 
	d="
M178.000793,76.832855 
	C173.051727,69.403313 168.322327,61.815563 163.108612,54.576626 
	C151.677704,38.705521 139.983658,23.024096 128.450821,7.225979 
	C127.194023,5.504371 126.288986,3.525971 125.110397,1.333339 
	C126.388893,1.000000 127.777779,1.000000 129.665558,1.345898 
	C131.189957,3.567706 132.024261,5.582624 133.271072,7.297649 
	C143.797745,21.777258 154.487900,36.138645 164.945831,50.667362 
	C171.135330,59.266121 176.993668,68.103256 182.586746,76.890617 
	C180.781982,76.909637 179.391388,76.871246 178.000793,76.832855 
z"/>
<path fill="#680072" opacity="1.000000" stroke="none" 
	d="
M92.000000,1.000001 
	C93.066788,1.000000 94.133575,1.000000 95.728409,1.322237 
	C98.217163,4.711046 100.024857,7.888983 102.162857,10.826509 
	C118.751450,33.618542 135.403778,56.364193 151.917297,79.374840 
	C151.238815,80.097252 150.679428,80.569016 149.853027,80.829956 
	C148.262375,79.129616 146.813812,77.732445 145.634003,76.136589 
	C129.990463,54.976734 114.330917,33.828205 98.821671,12.570100 
	C96.195473,8.970436 94.256485,4.869400 92.000000,1.000001 
z"/>
<path fill="#6A0071" opacity="1.000000" stroke="none" 
	d="
M152.036392,79.124191 
	C135.403778,56.364193 118.751450,33.618542 102.162857,10.826509 
	C100.024857,7.888983 98.217163,4.711046 96.128235,1.322237 
	C97.388893,1.000000 98.777779,1.000000 100.652115,1.358611 
	C102.258293,3.917102 103.104408,6.317459 104.541679,8.286256 
	C121.320732,31.270296 138.188766,54.189381 154.862427,77.380341 
	C153.806519,78.131424 152.921463,78.627815 152.036392,79.124191 
z"/>
<path fill="#650075" opacity="1.000000" stroke="none" 
	d="
M91.600006,1.000001 
	C94.256485,4.869400 96.195473,8.970436 98.821671,12.570100 
	C114.330917,33.828205 129.990463,54.976734 145.634003,76.136589 
	C146.813812,77.732445 148.262375,79.129616 149.744583,81.070282 
	C149.547180,82.118118 149.191223,82.714821 148.835251,83.311516 
	C146.994095,81.676926 144.797058,80.305214 143.365936,78.367744 
	C125.915604,54.743286 108.563004,31.046513 91.241722,7.327117 
	C89.990448,5.613651 89.179916,3.578331 88.082230,1.346327 
	C89.066673,1.000000 90.133339,1.000000 91.600006,1.000001 
z"/>
<path fill="#7B0064" opacity="1.000000" stroke="none" 
	d="
M183.000916,76.833191 
	C176.993668,68.103256 171.135330,59.266121 164.945831,50.667362 
	C154.487900,36.138645 143.797745,21.777258 133.271072,7.297649 
	C132.024261,5.582624 131.189957,3.567706 130.082214,1.345898 
	C131.066666,1.000000 132.133347,1.000000 133.600006,1.000001 
	C140.722549,10.829213 147.272659,20.782026 154.208939,30.458031 
	C164.061264,44.201916 174.216812,57.728207 184.184799,71.389793 
	C185.245880,72.844063 185.919952,74.580704 186.489777,76.566849 
	C185.137634,76.909294 184.069275,76.871246 183.000916,76.833191 
z"/>
<path fill="#6B0070" opacity="1.000000" stroke="none" 
	d="
M155.033264,77.125641 
	C138.188766,54.189381 121.320732,31.270296 104.541679,8.286256 
	C103.104408,6.317459 102.258293,3.917102 101.068787,1.358611 
	C102.066673,1.000000 103.133339,1.000000 104.679306,1.350181 
	C106.528023,4.138784 107.664650,6.747384 109.303360,8.988935 
	C123.504868,28.414856 137.829865,47.750515 152.027039,67.179596 
	C154.252960,70.225807 156.020462,73.607010 157.631622,76.892128 
	C156.519974,77.009178 155.776611,77.067406 155.033264,77.125641 
z"/>
<path fill="#6E006E" opacity="1.000000" stroke="none" 
	d="
M157.999939,76.833305 
	C156.020462,73.607010 154.252960,70.225807 152.027039,67.179596 
	C137.829865,47.750515 123.504868,28.414856 109.303360,8.988935 
	C107.664650,6.747384 106.528023,4.138784 105.079300,1.350181 
	C106.066673,1.000000 107.133339,1.000000 108.679398,1.350172 
	C110.327545,3.873360 111.260696,6.218384 112.701935,8.192474 
	C125.513702,25.741110 138.470673,43.183865 151.256454,60.751270 
	C155.047119,65.959572 158.430496,71.464310 161.602722,76.889656 
	C160.136612,76.908501 159.068283,76.870903 157.999939,76.833305 
z"/>
<path fill="#810060" opacity="1.000000" stroke="none" 
	d="
M287.000000,190.000000 
	C287.000000,193.030594 287.000000,196.061188 286.693359,199.405884 
	C284.749329,198.133347 282.867828,196.729843 281.516754,194.928482 
	C275.581909,187.015564 269.887115,178.921921 263.913635,171.039032 
	C261.963593,168.465652 259.432373,166.332672 257.109497,163.543213 
	C257.090057,159.724472 257.128113,156.360825 257.432617,153.182373 
	C258.896027,154.725861 260.200226,156.004852 261.272522,157.455261 
	C268.064423,166.641983 274.739014,175.916336 281.615875,185.038483 
	C283.061188,186.955719 285.187500,188.359573 287.000000,190.000000 
z"/>
<path fill="#70006C" opacity="1.000000" stroke="none" 
	d="
M162.000504,76.833214 
	C158.430496,71.464310 155.047119,65.959572 151.256454,60.751270 
	C138.470673,43.183865 125.513702,25.741110 112.701935,8.192474 
	C111.260696,6.218384 110.327545,3.873360 109.079391,1.350172 
	C110.066673,1.000000 111.133339,1.000000 112.600006,1.000000 
	C114.313705,3.639580 115.281525,6.531626 116.995140,8.879305 
	C132.461349,30.068266 148.065826,51.156273 163.596832,72.298073 
	C164.470001,73.486702 165.053833,74.887878 165.488678,76.567696 
	C164.136841,76.907921 163.068680,76.870567 162.000504,76.833214 
z"/>
<path fill="#910055" opacity="1.000000" stroke="none" 
	d="
M230.961212,82.120102 
	C229.545776,79.509529 228.407394,76.696632 226.671814,74.319839 
	C210.316864,51.922508 193.847214,29.608963 177.457733,7.236757 
	C176.195740,5.514117 175.291290,3.529556 174.110336,1.333366 
	C174.750000,1.000000 175.500000,1.000000 176.625000,0.999998 
	C179.420532,4.764601 181.650528,8.668959 184.292633,12.271034 
	C200.909164,34.925003 217.625793,57.505543 234.273819,80.136482 
	C235.247894,81.460625 235.912369,83.012497 236.498535,84.726791 
	C234.504486,84.036827 232.732849,83.078468 230.961212,82.120102 
z"/>
<path fill="#88005B" opacity="1.000000" stroke="none" 
	d="
M257.169708,137.997009 
	C258.894135,139.488586 260.958099,140.727844 262.285645,142.514374 
	C268.883972,151.394135 275.238953,160.454422 281.804840,169.358826 
	C283.037079,171.029922 284.838959,172.280991 286.688965,173.862946 
	C287.000000,176.700012 287.000000,179.400024 286.702271,182.397125 
	C285.220428,181.548752 283.850555,180.540909 282.882843,179.235031 
	C277.427399,171.873245 272.219116,164.323318 266.613342,157.079971 
	C263.806641,153.453354 260.335083,150.341278 257.106445,146.549652 
	C257.089050,143.400864 257.129364,140.698944 257.169708,137.997009 
z"/>
<path fill="#7D0063" opacity="1.000000" stroke="none" 
	d="
M257.166962,163.998291 
	C259.432373,166.332672 261.963593,168.465652 263.913635,171.039032 
	C269.887115,178.921921 275.581909,187.015564 281.516754,194.928482 
	C282.867828,196.729843 284.749329,198.133347 286.693359,199.859985 
	C287.000000,201.714355 287.000000,203.428711 287.000000,205.571533 
	C286.593781,205.933670 286.187592,205.867340 285.157990,205.744965 
	C283.225647,204.443008 281.709747,203.352051 280.641785,201.925705 
	C274.420044,193.616165 268.400299,185.153564 262.081207,176.920059 
	C260.557953,174.935333 258.161011,173.621185 256.116394,171.596069 
	C256.433624,168.795074 256.800293,166.396683 257.166962,163.998291 
z"/>
<path fill="#85005D" opacity="1.000000" stroke="none" 
	d="
M257.164215,146.996490 
	C260.335083,150.341278 263.806641,153.453354 266.613342,157.079971 
	C272.219116,164.323318 277.427399,171.873245 282.882843,179.235031 
	C283.850555,180.540909 285.220428,181.548752 286.702271,182.847107 
	C287.000000,185.041672 287.000000,187.083328 287.000000,189.562500 
	C285.187500,188.359573 283.061188,186.955719 281.615875,185.038483 
	C274.739014,175.916336 268.064423,166.641983 261.272522,157.455261 
	C260.200226,156.004852 258.896027,154.725861 257.374634,152.756668 
	C257.088196,150.429321 257.126190,148.712906 257.164215,146.996490 
z"/>
<path fill="#000000" opacity="1.000000" stroke="none" 
	d="
M137.169556,184.003372 
	C137.129456,189.359756 137.089355,194.716125 137.108063,200.536987 
	C135.816605,207.052170 133.035400,210.077774 127.026367,210.814911 
	C116.697571,212.081970 117.125961,203.739365 116.334053,196.618805 
	C115.525558,196.328415 114.717056,196.038040 113.908562,195.747665 
	C112.955612,197.452942 112.137604,199.252151 111.027046,200.847748 
	C105.310623,209.060867 97.332253,212.809769 87.393036,213.040573 
	C75.266273,213.322189 63.769569,211.875656 53.575176,204.348724 
	C41.924938,195.746918 35.427055,184.114563 34.198399,170.086868 
	C32.998413,156.386566 32.811516,142.538177 33.158562,128.779480 
	C33.466312,116.578506 35.025681,104.345985 42.985878,94.207504 
	C45.637939,90.829704 48.803093,87.854752 52.232086,84.340820 
	C54.835388,82.695213 56.940296,81.404427 59.397377,80.050568 
	C61.847843,79.029823 63.946136,78.072151 66.431519,77.068375 
	C69.226746,76.385727 71.634880,75.749176 74.467422,75.073883 
	C76.594902,74.967628 78.297989,74.900108 80.406746,74.852753 
	C83.540306,74.526382 86.268196,74.179848 89.389145,73.898376 
	C91.854301,74.253784 93.926399,74.544128 96.382278,74.892899 
	C98.511024,75.245392 100.255997,75.539452 102.370323,75.896820 
	C104.826416,76.584686 106.913147,77.209251 109.354187,77.916290 
	C112.125237,79.038460 114.541985,80.078171 117.122589,81.410492 
	C124.506844,86.700920 129.690002,93.447243 133.932648,101.435234 
	C135.042923,106.885651 136.105133,111.942848 137.110901,117.414703 
	C137.091278,119.221115 137.128098,120.612892 136.924927,122.293213 
	C135.457596,122.776711 134.230255,122.971649 132.567993,123.109924 
	C130.089249,123.091248 128.045471,123.129227 125.603561,123.111145 
	C124.136444,123.092331 123.067467,123.129578 121.584320,123.110115 
	C119.779800,123.091141 118.389458,123.128868 116.722206,122.955170 
	C116.002937,121.481888 115.560562,120.220032 115.077942,118.539429 
	C114.725700,107.023354 108.486649,98.985115 97.666290,95.989487 
	C95.888580,95.596748 94.443092,95.382370 92.665543,94.989647 
	C90.888939,94.596931 89.444397,94.382561 87.589409,94.111015 
	C85.102554,94.334007 83.026154,94.614159 80.563171,94.931625 
	C78.103500,95.608871 76.030403,96.248795 73.599525,96.934158 
	C71.148293,98.281044 69.054848,99.582504 66.654938,101.042686 
	C59.299622,106.874496 56.383595,114.680809 56.108452,123.284843 
	C55.699066,136.086533 56.272102,148.918243 55.929203,161.723846 
	C55.538643,176.309235 64.700577,191.092743 81.213844,193.310989 
	C103.288269,196.276276 114.304649,185.613846 115.750359,166.399307 
	C115.827927,165.368469 113.456451,163.255493 112.129021,163.171951 
	C106.326744,162.806808 100.486176,163.107666 94.665558,162.947266 
	C92.393929,162.884674 90.042999,162.528687 87.894684,161.809189 
	C83.128586,160.212921 81.045792,156.593140 82.102684,151.158142 
	C82.949059,146.805801 86.212112,144.588684 90.516441,144.042526 
	C92.322975,143.813324 94.168633,143.892532 96.443649,143.890137 
	C99.593529,143.909439 102.296272,143.870102 105.449188,143.889130 
	C108.922661,144.007385 111.945961,144.067261 115.201096,144.404633 
	C118.288582,145.732651 121.144226,146.783173 124.298431,148.003784 
	C131.562546,153.442139 136.132935,160.155853 137.110077,169.466415 
	C137.091782,174.620667 137.130661,179.312027 137.169556,184.003372 
z"/>
<path fill="#380096" opacity="1.000000" stroke="none" 
	d="
M59.045200,80.113640 
	C56.940296,81.404427 54.835388,82.695213 52.387573,84.049461 
	C45.634117,74.882027 39.297916,65.598236 32.783859,56.440968 
	C29.141546,51.320713 25.204136,46.410374 21.150146,41.175507 
	C22.372976,39.048584 23.845352,37.151604 25.858421,35.329075 
	C37.281143,50.306900 48.163170,65.210266 59.045200,80.113640 
z"/>
<path fill="#4D0086" opacity="1.000000" stroke="none" 
	d="
M241.396988,270.871368 
	C240.145706,271.844879 238.894440,272.818390 237.114868,273.688812 
	C235.699066,272.592499 234.725479,271.662964 233.936859,270.596588 
	C220.762650,252.782623 207.577972,234.976105 194.510284,217.084167 
	C193.279541,215.399063 192.817627,213.152435 192.440186,211.109558 
	C195.253036,211.090958 197.624496,211.129288 200.109955,211.491028 
	C200.895218,213.144577 201.397095,214.598328 202.263794,215.785797 
	C211.456436,228.380661 220.792496,240.871719 229.902725,253.525528 
	C233.952347,259.150360 237.578568,265.080048 241.396988,270.871368 
z"/>
<path fill="#490089" opacity="1.000000" stroke="none" 
	d="
M191.998764,211.166504 
	C192.817627,213.152435 193.279541,215.399063 194.510284,217.084167 
	C207.577972,234.976105 220.762650,252.782623 233.936859,270.596588 
	C234.725479,271.662964 235.699066,272.592499 236.835052,273.814453 
	C235.301163,275.019623 233.518768,275.996033 231.195282,276.761047 
	C217.025223,258.037506 203.352844,239.556961 189.810425,220.981720 
	C187.580719,217.923386 185.921295,214.449295 184.439789,211.109985 
	C187.253754,211.090576 189.626251,211.128540 191.998764,211.166504 
z"/>
<path fill="#45008C" opacity="1.000000" stroke="none" 
	d="
M183.998322,211.167343 
	C185.921295,214.449295 187.580719,217.923386 189.810425,220.981720 
	C203.352844,239.556961 217.025223,258.037506 230.853821,276.827759 
	C229.633865,277.739410 228.214294,278.372986 226.201370,278.795654 
	C212.097656,260.261047 198.546188,241.967438 185.109406,223.589951 
	C182.194611,219.603394 179.691391,215.315887 177.433441,211.109741 
	C179.911606,211.090790 181.954971,211.129059 183.998322,211.167343 
z"/>
<path fill="#3D0092" opacity="1.000000" stroke="none" 
	d="
M215.996857,282.833588 
	C214.593201,283.233826 213.189529,283.634094 211.300110,283.735840 
	C207.655792,278.793488 204.614014,274.064911 201.316315,269.522125 
	C192.258575,257.044525 182.985764,244.721970 174.013672,232.183792 
	C169.116089,225.339584 164.655869,218.182388 160.424225,211.108780 
	C162.565964,211.089554 164.281891,211.127899 166.080505,211.506256 
	C167.135910,213.765533 167.871460,215.856964 169.119614,217.576218 
	C177.430267,229.023621 185.942352,240.325333 194.207703,251.804901 
	C201.591858,262.060608 208.742935,272.484131 215.996857,282.833588 
z"/>
<path fill="#400090" opacity="1.000000" stroke="none" 
	d="
M216.344604,282.868469 
	C208.742935,272.484131 201.591858,262.060608 194.207703,251.804901 
	C185.942352,240.325333 177.430267,229.023621 169.119614,217.576218 
	C167.871460,215.856964 167.135910,213.765533 166.506424,211.448746 
	C168.565765,211.089874 170.281891,211.128525 172.069626,211.516541 
	C173.044098,213.816452 173.669281,215.965347 174.896866,217.683914 
	C180.899353,226.087097 187.083893,234.359894 193.163696,242.708206 
	C202.476120,255.495331 211.755463,268.306519 221.048859,281.107483 
	C219.596695,281.706116 218.144531,282.304718 216.344604,282.868469 
z"/>
<path fill="#42008E" opacity="1.000000" stroke="none" 
	d="
M221.402145,281.065002 
	C211.755463,268.306519 202.476120,255.495331 193.163696,242.708206 
	C187.083893,234.359894 180.899353,226.087097 174.896866,217.683914 
	C173.669281,215.965347 173.044098,213.816452 172.483887,211.459290 
	C174.217239,211.090759 175.607925,211.128876 176.998611,211.166992 
	C179.691391,215.315887 182.194611,219.603394 185.109406,223.589951 
	C198.546188,241.967438 212.097656,260.261047 225.853851,278.819794 
	C224.651627,279.710754 223.203537,280.366669 221.402145,281.065002 
z"/>
<path fill="#3A0094" opacity="1.000000" stroke="none" 
	d="
M159.998413,211.166351 
	C164.655869,218.182388 169.116089,225.339584 174.013672,232.183792 
	C182.985764,244.721970 192.258575,257.044525 201.316315,269.522125 
	C204.614014,274.064911 207.655792,278.793488 210.926743,283.778137 
	C209.944946,284.423828 208.850769,284.728699 207.399918,285.074432 
	C201.388840,276.892548 195.905365,268.545624 190.041595,260.474945 
	C180.249405,246.997314 170.164978,233.732346 160.318222,220.293839 
	C158.065735,217.219681 156.279816,213.803635 154.540375,210.261292 
	C156.533859,210.373871 158.266144,210.770111 159.998413,211.166351 
z"/>
<path fill="#680072" opacity="1.000000" stroke="none" 
	d="
M271.043976,241.110535 
	C270.241547,242.633133 269.439117,244.155731 268.104370,245.653610 
	C257.037109,231.378143 246.502151,217.127411 236.167542,202.603867 
	C238.083038,201.274475 239.798218,200.217880 241.726013,199.498108 
	C245.182541,204.416321 248.434967,208.991730 251.668549,213.580414 
	C258.132477,222.753265 264.586121,231.933395 271.043976,241.110535 
z"/>
<path fill="#6B0070" opacity="1.000000" stroke="none" 
	d="
M271.343262,240.939545 
	C264.586121,231.933395 258.132477,222.753265 251.668549,213.580414 
	C248.434967,208.991730 245.182541,204.416321 241.913391,199.263184 
	C243.219772,197.447906 244.551422,196.204361 246.134491,195.188202 
	C251.172165,201.740570 255.856873,208.145721 260.772949,214.368088 
	C265.766022,220.687881 270.987335,226.827316 276.108704,233.045731 
	C274.619965,235.620010 273.131256,238.194275 271.343262,240.939545 
z"/>
<path fill="#630076" opacity="1.000000" stroke="none" 
	d="
M235.967194,202.876648 
	C246.502151,217.127411 257.037109,231.378143 267.837189,245.842072 
	C266.610596,247.968857 265.118866,249.882477 263.197723,251.633942 
	C261.706940,249.795441 260.734741,248.054184 259.570129,246.452911 
	C249.722610,232.913361 239.839966,219.399338 230.169037,205.605896 
	C232.235855,204.514984 234.101517,203.695816 235.967194,202.876648 
z"/>
<path fill="#59007D" opacity="1.000000" stroke="none" 
	d="
M257.056488,259.116211 
	C255.923279,259.999969 254.790054,260.883728 253.113358,261.697601 
	C251.668015,260.660370 250.661621,259.770264 249.880173,258.713837 
	C240.413803,245.916306 230.893311,233.157028 221.601227,220.233688 
	C219.324966,217.067856 217.824081,213.344513 216.216736,209.595917 
	C217.966522,209.167999 219.466278,209.021652 221.077362,209.218262 
	C222.199631,211.458939 222.988983,213.521103 224.256241,215.228577 
	C235.140686,229.894150 246.111481,244.495605 257.056488,259.116211 
z"/>
<path fill="#530082" opacity="1.000000" stroke="none" 
	d="
M250.108032,265.046814 
	C248.615326,266.262146 247.122604,267.477478 245.180725,268.452942 
	C243.244293,265.821075 241.905518,263.320343 240.245590,261.054901 
	C229.847290,246.863266 219.334381,232.755417 208.975693,218.535110 
	C207.347687,216.300201 206.311493,213.634201 205.333527,210.988983 
	C207.110001,210.595840 208.554596,210.381226 210.081512,210.505920 
	C210.868042,212.333603 211.364883,213.970795 212.309357,215.286728 
	C219.648560,225.512390 226.942368,235.775406 234.519592,245.823730 
	C239.483566,252.406509 244.896301,258.650879 250.108032,265.046814 
z"/>
<path fill="#56007F" opacity="1.000000" stroke="none" 
	d="
M250.381058,264.907715 
	C244.896301,258.650879 239.483566,252.406509 234.519592,245.823730 
	C226.942368,235.775406 219.648560,225.512390 212.309357,215.286728 
	C211.364883,213.970795 210.868042,212.333603 210.504944,210.449173 
	C212.552948,209.994568 214.259827,209.936035 215.966721,209.877487 
	C217.824081,213.344513 219.324966,217.067856 221.601227,220.233688 
	C230.893311,233.157028 240.413803,245.916306 249.880173,258.713837 
	C250.661621,259.770264 251.668015,260.660370 252.835098,261.841370 
	C252.284897,262.959503 251.469498,263.864044 250.381058,264.907715 
z"/>
<path fill="#600078" opacity="1.000000" stroke="none" 
	d="
M229.967880,205.877625 
	C239.839966,219.399338 249.722610,232.913361 259.570129,246.452911 
	C260.734741,248.054184 261.706940,249.795441 262.904419,251.795166 
	C262.217834,253.327713 261.395081,254.536880 260.111389,255.647003 
	C252.611374,245.929413 245.433304,236.408508 238.582901,226.657394 
	C234.141037,220.334686 230.177628,213.675873 226.342133,207.087677 
	C227.778931,206.630997 228.873398,206.254318 229.967880,205.877625 
z"/>
<path fill="#5C007B" opacity="1.000000" stroke="none" 
	d="
M225.999817,207.167664 
	C230.177628,213.675873 234.141037,220.334686 238.582901,226.657394 
	C245.433304,236.408508 252.611374,245.929413 259.849365,255.826401 
	C259.233978,257.015442 258.419647,257.926056 257.330902,258.976440 
	C246.111481,244.495605 235.140686,229.894150 224.256241,215.228577 
	C222.988983,213.521103 222.199631,211.458939 221.293564,208.950821 
	C222.932236,207.949509 224.466034,207.558594 225.999817,207.167664 
z"/>
<path fill="#500084" opacity="1.000000" stroke="none" 
	d="
M205.001648,211.167511 
	C206.311493,213.634201 207.347687,216.300201 208.975693,218.535110 
	C219.334381,232.755417 229.847290,246.863266 240.245590,261.054901 
	C241.905518,263.320343 243.244293,265.821075 244.863739,268.523163 
	C244.033081,269.503052 243.070221,270.172821 241.752182,270.856995 
	C237.578568,265.080048 233.952347,259.150360 229.902725,253.525528 
	C220.792496,240.871719 211.456436,228.380661 202.263794,215.785797 
	C201.397095,214.598328 200.895218,213.144577 200.524811,211.434265 
	C202.217651,211.091888 203.609650,211.129700 205.001648,211.167511 
z"/>
<path fill="#70006C" opacity="1.000000" stroke="none" 
	d="
M276.374023,232.859100 
	C270.987335,226.827316 265.766022,220.687881 260.772949,214.368088 
	C255.856873,208.145721 251.172165,201.740570 246.274368,194.907089 
	C247.156464,193.119080 248.150116,191.839600 249.449707,190.801849 
	C259.187378,203.730377 268.619110,216.417175 278.050812,229.103973 
	C277.580322,230.293472 277.109833,231.482971 276.374023,232.859100 
z"/>
<path fill="#760068" opacity="1.000000" stroke="none" 
	d="
M282.109314,218.045410 
	C281.738495,219.454132 281.367676,220.862839 280.630188,222.475418 
	C278.306213,220.476196 276.192871,218.391342 274.418732,216.049515 
	C266.851898,206.061707 259.385376,195.997910 251.946381,185.619843 
	C252.634644,183.839462 253.258774,182.401047 254.133942,181.191010 
	C255.435593,182.706589 256.531952,183.959412 257.529602,185.286423 
	C265.733185,196.198303 273.918488,207.123947 282.109314,218.045410 
z"/>
<path fill="#780066" opacity="1.000000" stroke="none" 
	d="
M282.393005,217.810242 
	C273.918488,207.123947 265.733185,196.198303 257.529602,185.286423 
	C256.531952,183.959412 255.435593,182.706589 254.180130,180.838593 
	C254.372589,179.171844 254.769897,178.085892 255.466309,177.139923 
	C258.014954,179.453552 260.574219,181.389816 262.455750,183.845413 
	C268.023987,191.112579 273.250458,198.640961 278.779694,205.939102 
	C280.246979,207.875793 282.322968,209.351318 284.119476,211.038589 
	C283.638550,213.217407 283.157654,215.396240 282.393005,217.810242 
z"/>
<path fill="#72006B" opacity="1.000000" stroke="none" 
	d="
M251.882248,185.961838 
	C259.385376,195.997910 266.851898,206.061707 274.418732,216.049515 
	C276.192871,218.391342 278.306213,220.476196 280.548309,222.835876 
	C280.089752,224.890137 279.346375,226.787811 278.326904,228.894730 
	C268.619110,216.417175 259.187378,203.730377 249.458542,190.452942 
	C250.068359,188.562134 250.975296,187.261978 251.882248,185.961838 
z"/>
<path fill="#7B0064" opacity="1.000000" stroke="none" 
	d="
M284.404266,210.791992 
	C282.322968,209.351318 280.246979,207.875793 278.779694,205.939102 
	C273.250458,198.640961 268.023987,191.112579 262.455750,183.845413 
	C260.574219,181.389816 258.014954,179.453552 255.414993,176.770218 
	C255.431671,174.839890 255.798767,173.419266 256.165863,171.998657 
	C258.161011,173.621185 260.557953,174.935333 262.081207,176.920059 
	C268.400299,185.153564 274.420044,193.616165 280.641785,201.925705 
	C281.709747,203.352051 283.225647,204.443008 284.824524,205.866364 
	C284.972626,207.544342 284.830841,209.044876 284.404266,210.791992 
z"/>
<path fill="#5C007B" opacity="1.000000" stroke="none" 
	d="
M71.002899,5.168379 
	C72.732094,4.767445 74.461288,4.366512 76.661224,4.276755 
	C78.999825,7.715613 80.634941,11.012852 82.771080,13.945104 
	C107.877411,48.408375 133.028671,82.839096 158.275223,117.199684 
	C160.399200,120.090401 163.295593,122.413574 165.889816,125.451637 
	C165.908417,128.934814 165.870331,131.966766 165.534363,134.857635 
	C163.870956,133.530792 162.231430,132.547653 161.181946,131.128265 
	C149.525009,115.362320 137.891846,99.577789 126.387108,83.700569 
	C113.521561,65.945328 100.726105,48.138256 88.038269,30.255741 
	C82.190338,22.013531 76.671150,13.538074 71.002899,5.168379 
z"/>
<path fill="#59007D" opacity="1.000000" stroke="none" 
	d="
M70.652946,5.249521 
	C76.671150,13.538074 82.190338,22.013531 88.038269,30.255741 
	C100.726105,48.138256 113.521561,65.945328 126.387108,83.700569 
	C137.891846,99.577789 149.525009,115.362320 161.181946,131.128265 
	C162.231430,132.547653 163.870956,133.530792 165.590881,135.272064 
	C165.907745,137.218552 165.870148,138.609512 165.547684,139.843018 
	C163.778503,138.152237 162.105698,136.759308 160.841461,135.062042 
	C154.218872,126.171120 147.796219,117.129791 141.086838,108.305908 
	C139.040741,105.614960 136.304672,103.448616 133.884598,101.042015 
	C129.690002,93.447243 124.506844,86.700920 117.050003,81.051468 
	C115.518524,77.917641 114.493988,75.242325 112.882797,72.985909 
	C104.877663,61.774967 96.813744,50.603050 88.585396,39.555279 
	C80.562561,28.783447 72.315941,18.178295 64.167572,7.499966 
	C66.212715,6.776865 68.257851,6.053764 70.652946,5.249521 
z"/>
<path fill="#600078" opacity="1.000000" stroke="none" 
	d="
M165.833130,125.000420 
	C163.295593,122.413574 160.399200,120.090401 158.275223,117.199684 
	C133.028671,82.839096 107.877411,48.408375 82.771080,13.945104 
	C80.634941,11.012852 78.999825,7.715613 77.047005,4.233876 
	C78.056763,3.575629 79.151466,3.271438 80.602448,2.927320 
	C85.295494,9.353095 89.416283,15.976606 94.005638,22.257755 
	C116.376816,52.875645 138.862976,83.409569 161.357376,113.937172 
	C162.413239,115.370110 163.937073,116.458214 165.594604,118.287369 
	C165.908539,120.912018 165.870834,122.956223 165.833130,125.000420 
z"/>
<path fill="#490089" opacity="1.000000" stroke="none" 
	d="
M88.996078,73.833313 
	C86.268196,74.179848 83.540306,74.526382 80.335129,74.503479 
	C77.727745,70.409317 75.904236,66.464333 73.414101,62.998272 
	C63.035309,48.551861 52.455940,34.249550 41.950130,19.894390 
	C43.736721,18.675526 45.523308,17.456661 47.817261,16.359915 
	C58.656502,30.576975 69.062706,44.618355 79.279137,58.796482 
	C82.763481,63.631962 85.770798,68.811165 88.996078,73.833313 
z"/>
<path fill="#3D0092" opacity="1.000000" stroke="none" 
	d="
M59.397377,80.050568 
	C48.163170,65.210266 37.281143,50.306900 26.149704,35.173569 
	C27.387321,33.034504 28.874344,31.125395 30.905754,29.286713 
	C38.471542,38.362587 45.701736,47.215172 52.444321,56.424747 
	C57.313492,63.075470 61.534397,70.200813 66.044426,77.114487 
	C63.946136,78.072151 61.847843,79.029823 59.397377,80.050568 
z"/>
<path fill="#41008F" opacity="1.000000" stroke="none" 
	d="
M66.431519,77.068375 
	C61.534397,70.200813 57.313492,63.075470 52.444321,56.424747 
	C45.701736,47.215172 38.471542,38.362587 31.198956,29.128057 
	C32.753662,27.336779 34.559559,25.774584 36.860054,24.328770 
	C46.218102,36.436188 55.127476,48.393681 63.922310,60.434826 
	C67.426285,65.232178 70.677002,70.214516 74.043015,75.112625 
	C71.634880,75.749176 69.226746,76.385727 66.431519,77.068375 
z"/>
<path fill="#530082" opacity="1.000000" stroke="none" 
	d="
M108.999886,77.833817 
	C106.913147,77.209251 104.826416,76.584686 102.284897,75.562057 
	C100.779053,73.298813 99.899635,71.309044 98.650269,69.587791 
	C86.568130,52.942150 74.459740,36.315182 62.263542,19.753069 
	C60.121830,16.844677 57.537628,14.262132 55.157780,11.529101 
	C57.179596,10.678034 59.201412,9.826967 61.674809,9.285419 
	C63.411755,11.889225 64.478851,14.342573 66.016685,16.452885 
	C79.510994,34.970604 93.122452,53.403034 106.586044,71.942909 
	C107.797478,73.611115 108.214127,75.856491 108.999886,77.833817 
z"/>
<path fill="#56007F" opacity="1.000000" stroke="none" 
	d="
M109.354187,77.916290 
	C108.214127,75.856491 107.797478,73.611115 106.586044,71.942909 
	C93.122452,53.403034 79.510994,34.970604 66.016685,16.452885 
	C64.478851,14.342573 63.411755,11.889225 62.044399,9.237382 
	C62.544086,8.513511 63.125763,8.147194 63.937508,7.640421 
	C72.315941,18.178295 80.562561,28.783447 88.585396,39.555279 
	C96.813744,50.603050 104.877663,61.774967 112.882797,72.985909 
	C114.493988,75.242325 115.518524,77.917641 116.886139,80.758850 
	C114.541985,80.078171 112.125237,79.038460 109.354187,77.916290 
z"/>
<path fill="#45008C" opacity="1.000000" stroke="none" 
	d="
M74.467422,75.073883 
	C70.677002,70.214516 67.426285,65.232178 63.922310,60.434826 
	C55.127476,48.393681 46.218102,36.436188 37.152626,24.171539 
	C38.421707,22.662231 39.892826,21.426533 41.657036,20.042612 
	C52.455940,34.249550 63.035309,48.551861 73.414101,62.998272 
	C75.904236,66.464333 77.727745,70.409317 79.929451,74.483322 
	C78.297989,74.900108 76.594902,74.967628 74.467422,75.073883 
z"/>
<path fill="#4D0086" opacity="1.000000" stroke="none" 
	d="
M89.389145,73.898376 
	C85.770798,68.811165 82.763481,63.631962 79.279137,58.796482 
	C69.062706,44.618355 58.656502,30.576975 48.113483,16.212868 
	C49.366116,14.966975 50.829895,13.990248 52.764507,13.269462 
	C53.545387,14.109864 53.789528,14.742308 54.175026,15.271840 
	C67.032867,32.933521 79.936409,50.562122 92.728035,68.271561 
	C94.140182,70.226624 94.923523,72.635872 95.998497,74.834473 
	C93.926399,74.544128 91.854301,74.253784 89.389145,73.898376 
z"/>
<path fill="#500084" opacity="1.000000" stroke="none" 
	d="
M96.382278,74.892899 
	C94.923523,72.635872 94.140182,70.226624 92.728035,68.271561 
	C79.936409,50.562122 67.032867,32.933521 54.175026,15.271840 
	C53.789528,14.742308 53.545387,14.109864 53.098209,13.204498 
	C53.538715,12.521430 54.116352,12.159266 54.925888,11.663101 
	C57.537628,14.262132 60.121830,16.844677 62.263542,19.753069 
	C74.459740,36.315182 86.568130,52.942150 98.650269,69.587791 
	C99.899635,71.309044 100.779053,73.298813 101.915543,75.498749 
	C100.255997,75.539452 98.511024,75.245392 96.382278,74.892899 
z"/>
<path fill="#AE003F" opacity="1.000000" stroke="none" 
	d="
M281.050720,66.585060 
	C279.335205,65.538918 277.165558,64.412476 275.836395,62.651623 
	C266.463104,50.234104 257.233887,37.707165 248.050598,25.147938 
	C247.111893,23.864147 246.779602,22.136948 246.103943,20.249866 
	C257.319550,27.182112 265.808136,37.171261 272.649261,48.502331 
	C276.003418,54.057888 278.242096,60.286896 281.050720,66.585060 
z"/>
<path fill="#000000" opacity="1.000000" stroke="none" 
	d="
M165.889816,125.451637 
	C165.870834,122.956223 165.908539,120.912018 165.889404,118.432716 
	C165.870346,116.281456 165.908112,114.565300 165.945877,111.975594 
	C166.788376,99.142426 164.270706,97.433128 154.002670,96.167496 
	C148.692337,92.966537 147.296936,89.732994 148.825378,83.729446 
	C149.191223,82.714821 149.547180,82.118118 150.011597,81.281097 
	C150.679428,80.569016 151.238815,80.097252 151.917297,79.374847 
	C152.921463,78.627815 153.806519,78.131424 154.862427,77.380341 
	C155.776611,77.067406 156.519974,77.009178 157.631622,76.892128 
	C159.068283,76.870903 160.136612,76.908501 161.602722,76.889656 
	C163.068680,76.870567 164.136841,76.907921 165.602737,76.888817 
	C168.372223,76.870903 170.743988,76.909447 173.556778,76.890640 
	C175.066849,76.871017 176.135895,76.908745 177.602875,76.889664 
	C179.391388,76.871246 180.781982,76.909637 182.586746,76.890610 
	C184.069275,76.871246 185.137634,76.909294 186.603745,76.890244 
	C189.045151,76.872337 191.088806,76.911522 193.567200,76.892441 
	C196.374222,76.872925 198.746490,76.911682 201.559967,76.892059 
	C203.717392,76.872490 205.433609,76.911308 207.575531,76.891693 
	C209.429214,77.111320 210.857208,77.389374 212.644287,77.749557 
	C214.393936,77.870758 215.784500,77.909836 217.589157,77.890305 
	C220.087494,78.522713 222.171768,79.213730 224.629883,79.869255 
	C226.752594,80.553093 228.501450,81.272415 230.605759,82.055923 
	C232.732849,83.078468 234.504486,84.036827 236.618759,85.057266 
	C244.529190,91.052170 250.773132,97.989258 253.996002,107.672020 
	C255.128693,113.047264 256.089264,118.099083 257.108063,123.573990 
	C257.128845,128.356155 257.091431,132.715210 257.111877,137.535645 
	C257.129364,140.698944 257.089050,143.400864 257.106445,146.549652 
	C257.126190,148.712906 257.088196,150.429321 257.108154,152.571442 
	C257.128113,156.360825 257.090057,159.724472 257.109497,163.543213 
	C256.800293,166.396683 256.433624,168.795074 256.116394,171.596069 
	C255.798767,173.419266 255.431671,174.839890 255.115891,176.630219 
	C254.769897,178.085892 254.372589,179.171844 253.929092,180.610214 
	C253.258774,182.401047 252.634644,183.839462 251.946381,185.619843 
	C250.975296,187.261978 250.068359,188.562134 249.152588,190.211212 
	C248.150116,191.839600 247.156464,193.119080 246.022934,194.679688 
	C244.551422,196.204361 243.219772,197.447906 241.700760,198.926376 
	C239.798218,200.217880 238.083038,201.274475 236.167542,202.603851 
	C234.101517,203.695816 232.235855,204.514984 230.169037,205.605896 
	C228.873398,206.254318 227.778931,206.630997 226.342148,207.087677 
	C224.466034,207.558594 222.932236,207.949509 221.182220,208.607864 
	C219.466278,209.021652 217.966522,209.167999 216.216736,209.595917 
	C214.259827,209.936035 212.552948,209.994568 210.422607,210.109863 
	C208.554596,210.381226 207.110001,210.595840 205.333542,210.988983 
	C203.609650,211.129700 202.217651,211.091888 200.410797,211.110840 
	C197.624496,211.129288 195.253036,211.090958 192.440186,211.109558 
	C189.626251,211.128540 187.253754,211.090576 184.439789,211.109985 
	C181.954971,211.129059 179.911606,211.090790 177.433441,211.109741 
	C175.607925,211.128876 174.217239,211.090759 172.412292,211.109909 
	C170.281891,211.128525 168.565765,211.089874 166.423706,211.108719 
	C164.281891,211.127899 162.565964,211.089554 160.424225,211.108780 
	C158.266144,210.770111 156.533859,210.373871 154.419373,209.930054 
	C148.412933,205.808151 147.268280,202.602829 149.353745,195.288376 
	C151.139542,193.533981 152.591507,192.324158 154.437988,191.075226 
	C156.569489,190.729370 158.306473,190.422623 160.355972,190.056427 
	C161.462753,189.366867 162.257034,188.736725 163.353973,187.937286 
	C164.382278,186.178558 165.107925,184.589111 165.890686,182.573593 
	C165.910004,180.430344 165.872223,178.713150 165.891266,176.544907 
	C165.909698,173.062225 165.871307,170.030624 165.889847,166.543915 
	C165.908524,162.726059 165.870285,159.363281 165.888702,155.585922 
	C165.908081,153.779617 165.870804,152.387909 165.890381,150.541260 
	C165.909012,146.724350 165.870789,143.362411 165.832565,140.000458 
	C165.870148,138.609512 165.907745,137.218552 165.888794,135.413177 
	C165.870331,131.966766 165.908417,128.934814 165.889816,125.451637 
M210.313843,97.795975 
	C208.542725,97.586731 206.771622,97.377480 204.210602,97.052635 
	C202.463135,97.334343 200.715652,97.616058 198.262222,97.979271 
	C196.496170,98.945869 194.730133,99.912468 192.351395,101.232903 
	C191.216751,104.119255 190.082108,107.005600 188.325348,110.476059 
	C188.272202,114.317413 188.219055,118.158775 188.052887,122.894608 
	C188.091400,125.596619 188.129929,128.298630 188.054184,131.870407 
	C188.089874,133.914383 188.125565,135.958374 188.047958,138.896652 
	C188.087524,141.598755 188.127090,144.300842 188.052719,147.932434 
	C188.089294,153.622009 188.125870,159.311569 188.048233,165.917404 
	C188.031967,168.057022 187.626099,170.283524 188.079895,172.318314 
	C189.048584,176.661758 189.649612,181.398560 191.879395,185.078583 
	C195.488846,191.035645 201.774872,191.051651 208.817139,189.945572 
	C211.877487,189.241165 214.937851,188.536758 218.675415,187.899872 
	C220.131348,186.971298 221.587280,186.042740 223.703430,184.988800 
	C225.153381,183.693298 226.603348,182.397781 228.601944,180.714920 
	C229.434875,179.161133 230.267807,177.607330 231.671127,175.617996 
	C232.391541,173.595688 233.111969,171.573380 233.977402,168.774689 
	C234.262726,165.182709 234.548065,161.590714 234.946854,157.083237 
	C234.908966,153.388382 234.871094,149.693512 234.947006,145.104233 
	C234.909439,142.402252 234.871872,139.700272 234.940994,136.338898 
	C234.786804,134.505402 234.632629,132.671906 234.835693,130.011688 
	C234.196548,125.024406 234.237488,119.827415 232.777618,115.093224 
	C229.675369,105.032959 220.410690,98.241455 210.313843,97.795975 
z"/>
<path fill="#650075" opacity="1.000000" stroke="none" 
	d="
M154.116577,96.489197 
	C164.270706,97.433128 166.788376,99.142426 165.889130,111.549622 
	C161.965088,106.935097 158.097794,101.872993 154.116577,96.489197 
z"/>
<path fill="#400090" opacity="1.000000" stroke="none" 
	d="
M154.043472,191.114319 
	C152.591507,192.324158 151.139542,193.533981 149.404510,194.890564 
	C146.858368,192.936234 144.582382,190.848755 142.336609,188.729279 
	C140.791687,187.271225 139.288666,185.768784 137.468231,184.144775 
	C137.130661,179.312027 137.091782,174.620667 137.408783,169.606216 
	C143.190948,176.560181 148.617203,183.837250 154.043472,191.114319 
z"/>
<path fill="#330099" opacity="1.000000" stroke="none" 
	d="
M95.996506,143.831528 
	C94.168633,143.892532 92.322975,143.813324 90.516441,144.042526 
	C86.212112,144.588684 82.949059,146.805801 82.102684,151.158142 
	C81.045792,156.593140 83.128586,160.212921 87.894684,161.809189 
	C90.042999,162.528687 92.393929,162.884674 94.665558,162.947266 
	C100.486176,163.107666 106.326744,162.806808 112.129021,163.171951 
	C113.456451,163.255493 115.827927,165.368469 115.750359,166.399307 
	C114.304649,185.613846 103.288269,196.276276 81.213844,193.310989 
	C64.700577,191.092743 55.538643,176.309235 55.929203,161.723846 
	C56.272102,148.918243 55.699066,136.086533 56.108452,123.284843 
	C56.383595,114.680809 59.299622,106.874496 66.784866,101.372658 
	C71.835037,108.221367 76.487907,114.872269 81.052132,121.583443 
	C86.076073,128.970581 91.018539,136.413116 95.996506,143.831528 
z"/>
<path fill="#3D0092" opacity="1.000000" stroke="none" 
	d="
M114.969254,144.127151 
	C111.945961,144.067261 108.922661,144.007385 105.377739,143.539978 
	C103.501038,140.489120 102.432541,137.643311 100.735733,135.241364 
	C96.132370,128.725006 91.119545,122.497147 86.539604,115.965210 
	C82.168205,109.730705 78.137688,103.257172 73.957314,96.888718 
	C76.030403,96.248795 78.103500,95.608871 80.727921,95.237274 
	C87.715424,104.370377 94.287804,113.140358 100.544693,122.129929 
	C105.551804,129.323883 110.175430,136.784744 114.969254,144.127151 
z"/>
<path fill="#380096" opacity="1.000000" stroke="none" 
	d="
M73.599525,96.934158 
	C78.137688,103.257172 82.168205,109.730705 86.539604,115.965210 
	C91.119545,122.497147 96.132370,128.725006 100.735733,135.241364 
	C102.432541,137.643311 103.501038,140.489120 104.927559,143.481628 
	C102.296272,143.870102 99.593529,143.909439 96.443649,143.890137 
	C91.018539,136.413116 86.076073,128.970581 81.052132,121.583443 
	C76.487907,114.872269 71.835037,108.221367 67.091324,101.213928 
	C69.054848,99.582504 71.148293,98.281044 73.599525,96.934158 
z"/>
<path fill="#42008E" opacity="1.000000" stroke="none" 
	d="
M154.437988,191.075226 
	C148.617203,183.837250 143.190948,176.560181 137.465958,169.143311 
	C136.132935,160.155853 131.562546,153.442139 124.227142,147.656128 
	C122.715271,144.953735 121.817520,142.592651 120.388969,140.614975 
	C114.167023,132.001419 107.631760,123.611115 101.521515,114.920898 
	C96.775627,108.171143 92.490028,101.097740 87.999855,94.168182 
	C89.444397,94.382561 90.888939,94.596931 92.737289,95.338730 
	C94.430412,98.357452 95.482674,101.011688 97.059296,103.305504 
	C100.167976,107.828316 103.594543,112.131401 106.841393,116.560715 
	C116.373497,129.564392 125.932533,142.548782 135.384460,155.610611 
	C143.671967,167.063293 151.828873,178.610458 160.043472,190.115875 
	C158.306473,190.422623 156.569489,190.729370 154.437988,191.075226 
z"/>
<path fill="#45008C" opacity="1.000000" stroke="none" 
	d="
M160.355972,190.056442 
	C151.828873,178.610458 143.671967,167.063293 135.384460,155.610611 
	C125.932533,142.548782 116.373497,129.564392 106.841393,116.560715 
	C103.594543,112.131401 100.167976,107.828316 97.059296,103.305504 
	C95.482674,101.011688 94.430412,98.357452 93.069351,95.517075 
	C94.443092,95.382370 95.888580,95.596748 97.737808,96.337036 
	C101.203537,101.546608 104.059868,106.383728 107.400047,110.859795 
	C109.614166,113.826851 112.521301,116.276756 115.118195,118.958176 
	C115.560562,120.220032 116.002937,121.481888 116.807953,123.288406 
	C118.170311,125.531303 119.040573,127.323044 120.189400,128.913574 
	C134.453156,148.661591 148.757462,168.380325 163.051315,188.106598 
	C162.257034,188.736725 161.462753,189.366867 160.355972,190.056442 
z"/>
<path fill="#4D0086" opacity="1.000000" stroke="none" 
	d="
M165.832916,166.999008 
	C165.871307,170.030624 165.909698,173.062225 165.593536,176.404388 
	C163.666336,175.268356 161.823318,174.024231 160.564362,172.342789 
	C151.498672,160.234863 142.456543,148.106537 133.620911,135.830688 
	C130.752823,131.845856 128.523300,127.401421 126.001686,123.167206 
	C128.045471,123.129227 130.089249,123.091248 132.681702,123.431419 
	C133.656784,124.709969 133.951889,125.706360 134.529327,126.496407 
	C143.657974,138.986465 152.793030,151.472214 162.024536,163.886139 
	C162.973450,165.162140 164.548431,165.972565 165.832916,166.999008 
z"/>
<path fill="#56007F" opacity="1.000000" stroke="none" 
	d="
M165.547684,139.843018 
	C165.870789,143.362411 165.909012,146.724350 165.596085,150.396729 
	C163.723938,149.216797 161.988464,147.888565 160.718384,146.208542 
	C154.627472,138.151825 148.736923,129.942932 142.598206,121.923599 
	C141.137207,120.015030 138.995789,118.627335 137.167343,117.000053 
	C136.105133,111.942848 135.042923,106.885651 133.932648,101.435234 
	C136.304672,103.448616 139.040741,105.614960 141.086838,108.305908 
	C147.796219,117.129791 154.218872,126.171120 160.841461,135.062042 
	C162.105698,136.759308 163.778503,138.152237 165.547684,139.843018 
z"/>
<path fill="#41008F" opacity="1.000000" stroke="none" 
	d="
M87.589409,94.111015 
	C92.490028,101.097740 96.775627,108.171143 101.521515,114.920898 
	C107.631760,123.611115 114.167023,132.001419 120.388969,140.614975 
	C121.817520,142.592651 122.715271,144.953735 123.928589,147.486038 
	C121.144226,146.783173 118.288582,145.732651 115.201096,144.404633 
	C110.175430,136.784744 105.551804,129.323883 100.544693,122.129929 
	C94.287804,113.140358 87.715424,104.370377 81.114494,95.199951 
	C83.026154,94.614159 85.102554,94.334007 87.589409,94.111015 
z"/>
<path fill="#500084" opacity="1.000000" stroke="none" 
	d="
M165.889847,166.543915 
	C164.548431,165.972565 162.973450,165.162140 162.024536,163.886139 
	C152.793030,151.472214 143.657974,138.986465 134.529327,126.496407 
	C133.951889,125.706360 133.656784,124.709969 133.116638,123.488083 
	C134.230255,122.971649 135.457596,122.776711 137.209503,122.449677 
	C141.522583,126.882759 145.300613,131.456696 149.102097,136.011032 
	C154.669922,142.681549 160.254562,149.338043 165.832031,156.000519 
	C165.870285,159.363281 165.908524,162.726059 165.889847,166.543915 
z"/>
<path fill="#47008A" opacity="1.000000" stroke="none" 
	d="
M163.353973,187.937286 
	C148.757462,168.380325 134.453156,148.661591 120.189400,128.913574 
	C119.040573,127.323044 118.170311,125.531303 117.084854,123.499832 
	C118.389458,123.128868 119.779800,123.091141 121.655838,123.457779 
	C122.990417,125.650612 123.582108,127.626503 124.727837,129.198639 
	C136.787643,145.746765 148.905365,162.253098 161.106125,178.697495 
	C162.351822,180.376480 164.242294,181.577072 165.833557,182.999664 
	C165.107925,184.589111 164.382278,186.178558 163.353973,187.937286 
z"/>
<path fill="#490089" opacity="1.000000" stroke="none" 
	d="
M165.890671,182.573593 
	C164.242294,181.577072 162.351822,180.376480 161.106125,178.697495 
	C148.905365,162.253098 136.787643,145.746765 124.727837,129.198639 
	C123.582108,127.626503 122.990417,125.650612 122.070000,123.514496 
	C123.067467,123.129578 124.136444,123.092331 125.603561,123.111153 
	C128.523300,127.401421 130.752823,131.845856 133.620911,135.830688 
	C142.456543,148.106537 151.498672,160.234863 160.564362,172.342789 
	C161.823318,174.024231 163.666336,175.268356 165.536697,176.855453 
	C165.872223,178.713150 165.910004,180.430344 165.890671,182.573593 
z"/>
<path fill="#530082" opacity="1.000000" stroke="none" 
	d="
M165.888702,155.585922 
	C160.254562,149.338043 154.669922,142.681549 149.102097,136.011032 
	C145.300613,131.456696 141.522583,126.882759 137.449493,122.161125 
	C137.128098,120.612892 137.091278,119.221115 137.110901,117.414703 
	C138.995789,118.627335 141.137207,120.015030 142.598206,121.923599 
	C148.736923,129.942932 154.627472,138.151825 160.718384,146.208542 
	C161.988464,147.888565 163.723938,149.216797 165.539246,150.851669 
	C165.870804,152.387909 165.908081,153.779617 165.888702,155.585922 
z"/>
<path fill="#47008A" opacity="1.000000" stroke="none" 
	d="
M115.077942,118.539429 
	C112.521301,116.276756 109.614166,113.826851 107.400047,110.859795 
	C104.059868,106.383728 101.203537,101.546608 98.070030,96.515404 
	C108.486649,98.985115 114.725700,107.023354 115.077942,118.539429 
z"/>
<path fill="#72006B" opacity="1.000000" stroke="none" 
	d="
M234.833405,157.998734 
	C234.548065,161.590714 234.262726,165.182709 233.582367,168.925476 
	C231.884140,167.814194 230.366577,166.709091 229.310272,165.266266 
	C215.817535,146.836319 202.390900,128.357986 188.947464,109.891945 
	C190.082108,107.005600 191.216751,104.119255 192.729324,101.424026 
	C194.352219,104.114174 195.283142,106.839417 196.893631,109.075127 
	C206.582581,122.525452 216.336746,135.931519 226.284943,149.190430 
	C228.720779,152.436905 231.962296,155.078857 234.833405,157.998734 
z"/>
<path fill="#760068" opacity="1.000000" stroke="none" 
	d="
M234.890137,157.540985 
	C231.962296,155.078857 228.720779,152.436905 226.284943,149.190430 
	C216.336746,135.931519 206.582581,122.525452 196.893631,109.075127 
	C195.283142,106.839417 194.352219,104.114174 193.035675,101.247116 
	C194.730133,99.912468 196.496170,98.945869 198.744629,98.267929 
	C200.021454,100.005989 200.668304,101.562813 201.633118,102.888168 
	C211.180557,116.003433 220.745087,129.106766 230.413254,142.132965 
	C231.553268,143.668915 233.344086,144.721817 234.833206,145.998657 
	C234.871094,149.693512 234.908966,153.388382 234.890137,157.540985 
z"/>
<path fill="#6E006E" opacity="1.000000" stroke="none" 
	d="
M188.636414,110.184006 
	C202.390900,128.357986 215.817535,146.836319 229.310272,165.266266 
	C230.366577,166.709091 231.884140,167.814194 233.509857,169.313660 
	C233.111969,171.573380 232.391541,173.595688 231.113205,175.631653 
	C228.651138,173.580795 226.537796,171.671066 224.876984,169.426498 
	C214.514999,155.422363 204.304810,141.305710 193.904541,127.330368 
	C192.371780,125.270737 190.097260,123.763138 188.165924,122.000130 
	C188.219055,118.158775 188.272202,114.317413 188.636414,110.184006 
z"/>
<path fill="#600078" opacity="1.000000" stroke="none" 
	d="
M217.998199,187.832336 
	C214.937851,188.536758 211.877487,189.241165 208.293488,189.566650 
	C202.677155,181.879929 197.666382,174.512238 192.410095,167.324066 
	C191.547852,166.144913 189.605545,165.755539 188.162430,165.001144 
	C188.125870,159.311569 188.089294,153.622009 188.375977,147.652313 
	C190.939789,150.212936 193.298553,152.969193 195.399658,155.909546 
	C202.979431,166.516937 210.472427,177.186340 217.998199,187.832336 
z"/>
<path fill="#650075" opacity="1.000000" stroke="none" 
	d="
M218.336807,187.866104 
	C210.472427,177.186340 202.979431,166.516937 195.399658,155.909546 
	C193.298553,152.969193 190.939789,150.212936 188.432953,147.187576 
	C188.127090,144.300842 188.087524,141.598755 188.403168,138.590378 
	C190.120529,139.476608 191.744598,140.473587 192.803696,141.892319 
	C201.964798,154.164185 211.069489,166.479080 220.064590,178.872894 
	C221.396118,180.707535 222.066803,183.021790 223.043213,185.114166 
	C221.587280,186.042740 220.131348,186.971298 218.336807,187.866104 
z"/>
<path fill="#6A0071" opacity="1.000000" stroke="none" 
	d="
M188.109406,122.447372 
	C190.097260,123.763138 192.371780,125.270737 193.904541,127.330368 
	C204.304810,141.305710 214.514999,155.422363 224.876984,169.426498 
	C226.537796,171.671066 228.651138,173.580795 230.828003,175.849426 
	C230.267807,177.607330 229.434875,179.161133 228.099396,180.656647 
	C216.977921,166.398010 206.435654,152.139099 195.672775,138.048691 
	C193.617752,135.358337 190.692307,133.332870 188.168442,131.000641 
	C188.129929,128.298630 188.091400,125.596619 188.109406,122.447372 
z"/>
<path fill="#7B0064" opacity="1.000000" stroke="none" 
	d="
M234.890106,145.551453 
	C233.344086,144.721817 231.553268,143.668915 230.413254,142.132965 
	C220.745087,129.106766 211.180557,116.003433 201.633118,102.888168 
	C200.668304,101.562813 200.021454,100.005989 199.097626,98.227173 
	C200.715652,97.616058 202.463135,97.334343 204.687866,97.449356 
	C205.961349,99.465569 206.545425,101.238686 207.588699,102.679237 
	C213.690323,111.104263 219.780136,119.543381 226.130463,127.779968 
	C228.697952,131.110092 231.913620,133.940491 234.834305,136.998291 
	C234.871872,139.700272 234.909439,142.402252 234.890106,145.551453 
z"/>
<path fill="#680072" opacity="1.000000" stroke="none" 
	d="
M188.111313,131.435516 
	C190.692307,133.332870 193.617752,135.358337 195.672775,138.048691 
	C206.435654,152.139099 216.977921,166.398010 227.825073,180.850327 
	C226.603348,182.397781 225.153381,183.693298 223.373322,185.051483 
	C222.066803,183.021790 221.396118,180.707535 220.064590,178.872894 
	C211.069489,166.479080 201.964798,154.164185 192.803696,141.892319 
	C191.744598,140.473587 190.120529,139.476608 188.459824,138.143219 
	C188.125565,135.958374 188.089874,133.914383 188.111313,131.435516 
z"/>
<path fill="#810060" opacity="1.000000" stroke="none" 
	d="
M211.002014,98.167427 
	C220.410690,98.241455 229.675369,105.032959 232.777618,115.093224 
	C234.237488,119.827415 234.196548,125.024406 234.395386,130.129730 
	C231.387939,127.027199 228.651688,123.925446 226.288300,120.561714 
	C221.092865,113.167221 216.085907,105.640297 211.002014,98.167427 
z"/>
<path fill="#59007D" opacity="1.000000" stroke="none" 
	d="
M188.105331,165.459274 
	C189.605545,165.755539 191.547852,166.144913 192.410095,167.324066 
	C197.666382,174.512238 202.677155,181.879929 207.883224,189.510986 
	C201.774872,191.051651 195.488846,191.035645 191.879395,185.078583 
	C189.649612,181.398560 189.048584,176.661758 188.079895,172.318314 
	C187.626099,170.283524 188.031967,168.057022 188.105331,165.459274 
z"/>
<path fill="#7D0063" opacity="1.000000" stroke="none" 
	d="
M210.657928,97.981705 
	C216.085907,105.640297 221.092865,113.167221 226.288300,120.561714 
	C228.651688,123.925446 231.387939,127.027199 234.216766,130.543091 
	C234.632629,132.671906 234.786804,134.505402 234.887650,136.668594 
	C231.913620,133.940491 228.697952,131.110092 226.130463,127.779968 
	C219.780136,119.543381 213.690323,111.104263 207.588699,102.679237 
	C206.545425,101.238686 205.961349,99.465569 205.082825,97.507156 
	C206.771622,97.377480 208.542725,97.586731 210.657928,97.981705 
z"/>
</svg>